{"glyphs":{"\r":{"ha":708,"x_min":0,"x_max":0,"o":""}," ":{"ha":361,"x_min":0,"x_max":0,"o":""},"ก":{"ha":829,"x_min":90,"x_max":718,"o":"m 113 0 l 113 267 q 262 454 113 422 q 180 493 237 477 q 90 509 124 509 q 180 713 100 648 q 414 778 260 778 q 644 706 570 778 q 718 472 718 633 l 718 81 l 650 0 l 604 0 l 604 485 q 555 664 604 611 q 403 717 505 717 q 263 671 315 717 q 207 541 212 626 q 300 507 253 534 q 374 449 347 481 l 374 437 q 261 379 295 422 q 227 265 227 337 l 227 0 l 113 0 z "},"ข":{"ha":876,"x_min":40,"x_max":765,"o":"m 216 58 l 326 58 l 326 335 q 353 475 326 423 q 436 564 380 528 q 388 675 431 633 q 277 717 345 717 q 161 686 201 717 q 114 602 121 654 q 153 627 127 617 q 204 637 179 637 q 284 607 254 637 q 314 522 314 576 q 281 438 314 470 q 191 407 248 407 q 78 449 117 407 q 40 568 40 492 q 108 721 40 665 q 294 778 176 778 q 463 720 397 778 q 536 562 528 661 q 478 504 499 533 q 449 442 458 475 q 440 339 440 408 l 440 58 l 486 58 q 609 113 566 58 q 652 264 652 168 l 652 684 l 720 764 l 765 764 l 765 240 q 703 63 765 125 q 530 0 642 0 l 216 0 l 216 58 m 250 522 q 233 564 250 548 q 189 581 216 581 q 146 564 163 581 q 129 522 129 548 q 146 479 129 495 q 189 463 163 463 q 233 479 216 463 q 250 522 250 495 z "},"ฃ":{"ha":876,"x_min":40,"x_max":765,"o":"m 196 704 q 114 574 128 673 q 153 600 127 589 q 204 610 179 610 q 284 579 254 610 q 314 494 314 549 q 281 411 314 442 q 191 379 248 379 q 78 421 117 379 q 40 539 40 464 q 84 687 40 623 q 203 774 129 752 l 294 690 l 386 774 q 491 694 451 751 q 536 562 530 637 q 478 504 499 533 q 449 442 458 475 q 440 339 440 408 l 440 58 l 486 58 q 609 113 566 58 q 652 264 652 168 l 652 684 l 720 764 l 765 764 l 765 240 q 703 63 765 125 q 530 0 642 0 l 216 0 l 216 58 l 326 58 l 326 335 q 353 475 326 423 q 436 564 380 528 q 418 638 433 603 q 380 692 402 673 l 294 616 l 196 704 m 250 494 q 233 536 250 520 q 189 553 216 553 q 146 536 163 553 q 129 494 129 520 q 146 451 129 467 q 189 435 163 435 q 233 451 216 435 q 250 494 250 467 z "},"ค":{"ha":867,"x_min":77,"x_max":755,"o":"m 306 317 q 264 228 280 289 q 248 86 249 167 l 248 0 l 134 0 l 134 94 q 105 326 134 223 q 82 421 88 386 q 77 494 77 456 q 168 702 77 626 q 419 778 258 778 q 671 702 587 778 q 755 472 755 626 l 755 81 l 688 0 l 642 0 l 642 484 q 419 715 642 715 q 240 661 306 715 q 175 514 175 606 q 182 441 175 477 q 212 339 190 406 l 228 278 q 276 423 252 377 q 333 492 300 469 q 412 515 367 515 q 514 481 478 515 q 550 386 550 447 q 514 291 550 324 q 412 257 478 257 q 306 317 338 257 m 342 385 q 360 334 342 352 q 411 315 378 315 q 463 334 444 315 q 482 385 482 352 q 463 436 482 417 q 411 456 444 456 q 360 436 378 456 q 342 385 342 417 z "},"ฅ":{"ha":867,"x_min":77,"x_max":755,"o":"m 298 700 q 207 628 238 677 q 175 514 175 579 q 182 441 175 477 q 212 339 190 406 l 228 278 q 276 423 252 377 q 333 492 300 469 q 412 515 367 515 q 514 481 478 515 q 550 386 550 447 q 514 291 550 324 q 412 257 478 257 q 306 317 338 257 q 264 228 280 289 q 248 86 249 167 l 248 0 l 134 0 l 134 94 q 105 326 134 223 q 82 421 88 386 q 77 494 77 456 q 135 677 77 602 q 300 775 194 751 l 419 669 l 539 775 q 700 674 645 751 q 755 472 755 597 l 755 81 l 688 0 l 642 0 l 642 484 q 539 700 642 651 l 419 593 l 298 700 m 342 385 q 360 334 342 352 q 411 315 378 315 q 463 334 444 315 q 482 385 482 352 q 463 436 482 417 q 411 456 444 456 q 360 436 378 456 q 342 385 342 417 z "},"ฆ":{"ha":876,"x_min":40,"x_max":765,"o":"m 215 110 q 232 61 215 78 q 273 45 250 45 q 326 107 326 45 l 326 218 q 245 182 275 210 q 215 110 215 153 m 326 335 q 353 475 326 423 q 436 564 380 528 q 418 638 433 603 q 380 692 402 673 l 294 616 l 196 704 q 114 574 128 673 q 153 600 127 589 q 204 610 179 610 q 284 579 254 610 q 314 494 314 549 q 281 411 314 442 q 191 379 248 379 q 78 421 117 379 q 40 539 40 464 q 84 687 40 623 q 203 774 129 752 l 294 690 l 386 774 q 491 694 451 751 q 536 562 530 637 q 478 504 499 533 q 449 442 458 475 q 440 339 440 408 l 440 268 q 559 216 508 252 q 652 131 610 180 l 652 684 l 720 764 l 765 764 l 765 0 l 652 0 q 544 141 595 92 q 440 210 494 191 l 440 143 q 404 27 440 66 q 289 -12 368 -12 q 186 21 221 -12 q 151 110 151 54 q 197 220 151 177 q 326 272 243 262 l 326 335 m 250 494 q 233 536 250 520 q 189 553 216 553 q 146 536 163 553 q 129 494 129 520 q 146 451 129 467 q 189 435 163 435 q 233 451 216 435 q 250 494 250 467 z "},"ง":{"ha":657,"x_min":33,"x_max":546,"o":"m 399 513 q 303 546 338 513 q 269 642 269 580 q 305 737 269 703 q 407 771 341 771 q 510 737 474 771 q 546 642 546 703 l 546 212 q 505 38 546 90 q 366 -14 465 -14 q 264 5 302 -14 q 200 67 226 24 q 142 225 174 111 q 112 325 124 289 q 89 378 100 361 q 65 399 77 395 q 33 403 52 403 l 33 461 q 150 446 118 461 q 203 390 182 431 q 250 254 225 349 q 290 123 273 167 q 323 61 307 80 q 368 43 339 43 q 417 74 403 43 q 432 182 432 105 l 432 515 q 399 513 425 513 m 339 642 q 357 591 339 609 q 408 572 376 572 q 460 591 441 572 q 479 642 479 609 q 460 693 479 674 q 408 713 441 713 q 357 693 376 713 q 339 642 339 674 z "},"จ":{"ha":806,"x_min":64,"x_max":694,"o":"m 517 -14 q 415 4 452 -14 q 351 61 377 21 q 301 186 326 101 l 283 250 q 212 236 248 236 q 110 270 145 236 q 75 366 75 304 q 111 460 75 426 q 212 494 146 494 q 313 456 275 494 q 376 330 351 417 l 432 143 q 468 66 448 90 q 515 43 488 43 q 566 75 552 43 q 581 182 581 107 l 581 465 q 524 649 581 586 q 367 711 468 711 q 96 631 222 711 l 64 684 q 379 778 201 778 q 614 699 533 778 q 694 475 694 619 l 694 212 q 654 37 694 88 q 517 -14 613 -14 m 144 366 q 163 314 144 333 q 214 296 181 296 q 266 314 246 296 q 285 366 285 333 q 266 417 285 398 q 214 436 246 436 q 163 417 181 436 q 144 366 144 398 z "},"ฉ":{"ha":897,"x_min":58,"x_max":869,"o":"m 335 114 q 581 262 434 227 l 581 465 q 524 649 581 586 q 367 711 468 711 q 96 631 222 711 l 64 684 q 379 778 201 778 q 614 699 533 778 q 694 475 694 619 l 694 272 q 824 220 778 262 q 869 110 869 177 q 834 21 869 54 q 732 -12 800 -12 q 616 26 652 -12 q 581 143 581 65 l 581 210 q 335 0 429 154 l 221 0 l 221 262 q 187 260 214 260 q 93 293 127 260 q 58 389 58 327 q 94 485 58 450 q 196 519 130 519 q 299 485 263 519 q 335 389 335 450 l 335 114 m 806 110 q 776 182 806 154 q 694 218 746 210 l 694 107 q 708 61 694 77 q 747 45 722 45 q 788 61 771 45 q 806 110 806 78 m 127 389 q 146 338 127 356 q 197 319 165 319 q 249 338 230 319 q 268 389 268 356 q 249 440 268 421 q 197 460 230 460 q 146 440 165 460 q 127 389 127 421 z "},"ช":{"ha":876,"x_min":40,"x_max":913,"o":"m 250 522 q 233 564 250 548 q 189 581 216 581 q 146 564 163 581 q 129 522 129 548 q 146 479 129 495 q 189 463 163 463 q 233 479 216 463 q 250 522 250 495 m 652 454 q 587 561 652 536 l 587 593 q 654 634 623 604 q 743 755 685 665 l 785 818 l 913 818 q 797 654 814 675 q 761 618 779 633 q 725 593 743 603 q 684 576 707 583 q 745 532 724 563 q 765 460 765 500 l 765 240 q 703 63 765 125 q 530 0 642 0 l 216 0 l 216 58 l 326 58 l 326 335 q 353 475 326 423 q 436 564 380 528 q 388 675 431 633 q 277 717 345 717 q 161 686 201 717 q 114 602 121 654 q 153 627 127 617 q 204 637 179 637 q 284 607 254 637 q 314 522 314 576 q 281 438 314 470 q 191 407 248 407 q 78 449 117 407 q 40 568 40 492 q 108 721 40 665 q 294 778 176 778 q 463 720 397 778 q 536 562 528 661 q 478 504 499 533 q 449 442 458 475 q 440 339 440 408 l 440 58 l 486 58 q 609 113 566 58 q 652 264 652 168 l 652 454 z "},"ซ":{"ha":917,"x_min":40,"x_max":913,"o":"m 326 335 q 353 475 326 423 q 436 564 380 528 q 418 638 433 603 q 380 692 402 673 l 294 616 l 196 704 q 114 574 128 673 q 153 600 127 589 q 204 610 179 610 q 284 579 254 610 q 314 494 314 549 q 281 411 314 442 q 191 379 248 379 q 78 421 117 379 q 40 539 40 464 q 84 687 40 623 q 203 774 129 752 l 294 690 l 386 774 q 491 694 451 751 q 536 562 530 637 q 478 504 499 533 q 449 442 458 475 q 440 339 440 408 l 440 58 l 486 58 q 609 113 566 58 q 652 264 652 168 l 652 454 q 587 561 652 536 l 587 593 q 654 634 623 604 q 743 755 685 665 l 785 818 l 913 818 q 797 654 814 675 q 761 618 779 633 q 725 593 743 603 q 684 576 707 583 q 745 532 724 563 q 765 460 765 500 l 765 240 q 703 63 765 125 q 530 0 642 0 l 216 0 l 216 58 l 326 58 l 326 335 m 250 494 q 233 536 250 520 q 189 553 216 553 q 146 536 163 553 q 129 494 129 520 q 146 451 129 467 q 189 435 163 435 q 233 451 216 435 q 250 494 250 467 z "},"ฌ":{"ha":1166,"x_min":90,"x_max":1055,"o":"m 505 110 q 523 61 505 78 q 564 45 540 45 q 616 107 616 45 l 616 218 q 535 182 565 210 q 505 110 505 153 m 113 267 q 150 391 113 345 q 262 454 187 437 q 180 493 237 477 q 90 509 124 509 q 181 708 96 638 q 414 778 266 778 q 652 703 573 778 q 730 472 730 629 l 730 268 q 849 216 798 252 q 942 131 900 180 l 942 684 l 1010 764 l 1055 764 l 1055 0 l 942 0 q 834 141 885 92 q 730 210 784 191 l 730 143 q 694 27 730 66 q 579 -12 659 -12 q 476 21 511 -12 q 441 110 441 54 q 487 220 441 177 q 616 272 533 262 l 616 478 q 567 658 616 600 q 415 715 517 715 q 207 541 241 715 q 300 508 252 534 q 374 449 348 481 l 374 437 q 261 380 295 422 q 227 267 227 338 l 227 244 q 260 248 235 248 q 355 213 321 248 q 389 117 389 178 q 353 22 389 56 q 252 -12 317 -12 q 149 22 184 -12 q 113 117 113 56 l 113 267 m 319 118 q 301 169 319 151 q 250 187 283 187 q 198 169 218 187 q 179 118 179 151 q 198 66 179 85 q 250 47 218 47 q 301 66 283 47 q 319 118 319 85 z "},"ญ":{"ha":1154,"x_min":90,"x_max":1090,"o":"m 739 -322 q 621 -285 666 -322 q 575 -186 575 -248 q 610 -101 575 -134 q 703 -69 645 -69 q 794 -99 760 -69 q 828 -179 828 -129 q 817 -231 828 -208 q 793 -265 806 -254 q 986 -53 920 -240 l 1090 -86 q 963 -263 1048 -203 q 739 -322 878 -322 m 642 -187 q 658 -230 642 -214 q 703 -245 674 -245 q 745 -230 728 -245 q 762 -187 762 -214 q 745 -143 762 -159 q 703 -127 728 -127 q 658 -143 674 -127 q 642 -187 642 -159 m 604 0 l 604 485 q 555 664 604 611 q 403 717 505 717 q 263 671 315 717 q 207 541 212 626 q 300 507 253 534 q 374 449 347 481 l 374 437 q 261 379 295 422 q 227 265 227 337 l 227 244 q 260 248 235 248 q 355 214 321 248 q 389 118 389 180 q 353 22 389 57 q 252 -12 317 -12 q 149 22 184 -12 q 113 117 113 56 l 113 267 q 262 454 113 422 q 180 493 237 477 q 90 509 124 509 q 180 713 100 648 q 414 778 260 778 q 644 706 570 778 q 718 472 718 633 l 718 58 l 764 58 q 886 113 844 58 q 929 264 929 168 l 929 684 l 997 764 l 1043 764 l 1043 240 q 981 63 1043 127 q 808 0 920 0 l 604 0 m 319 118 q 301 169 319 151 q 250 187 283 187 q 198 169 218 187 q 179 118 179 151 q 198 66 179 85 q 250 47 218 47 q 301 66 283 47 q 319 118 319 85 z "},"ฎ":{"ha":892,"x_min":31,"x_max":799,"o":"m 350 -132 q 295 -148 317 -132 q 273 -195 273 -164 q 294 -242 273 -226 q 345 -258 314 -258 q 411 -233 379 -258 q 461 -165 442 -208 q 350 -132 402 -132 m 685 485 q 635 664 685 611 q 484 717 586 717 q 344 671 395 717 q 288 541 293 626 q 380 507 334 534 q 454 449 427 481 l 454 437 q 341 379 376 422 q 307 265 307 337 l 307 117 q 271 22 307 56 q 168 -12 235 -12 q 66 22 102 -12 q 31 117 31 56 q 65 213 31 178 q 160 248 99 248 q 193 244 185 248 l 193 267 q 343 454 193 422 q 261 493 316 477 q 171 509 206 509 q 260 713 180 648 q 494 778 340 778 q 724 706 649 778 q 799 472 799 633 l 799 -277 l 728 -353 l 692 -353 q 533 -208 625 -273 q 450 -287 498 -257 q 345 -317 402 -317 q 245 -284 284 -317 q 207 -196 207 -252 q 245 -107 207 -140 q 347 -74 283 -74 q 484 -106 420 -74 l 507 -18 l 611 -47 q 568 -151 593 -102 q 685 -244 635 -194 l 685 485 m 100 118 q 118 66 100 85 q 170 47 137 47 q 221 66 202 47 q 240 118 240 85 q 221 169 240 151 q 170 187 202 187 q 118 169 137 187 q 100 118 100 151 z "},"ฏ":{"ha":892,"x_min":31,"x_max":799,"o":"m 100 118 q 118 66 100 85 q 170 47 137 47 q 221 66 202 47 q 240 118 240 85 q 221 169 240 151 q 170 187 202 187 q 118 169 137 187 q 100 118 100 151 m 214 -144 q 159 -160 180 -144 q 138 -207 138 -176 q 158 -255 138 -239 q 208 -271 178 -271 q 271 -250 241 -271 q 321 -192 301 -229 q 214 -144 264 -144 m 208 -329 q 109 -297 146 -329 q 71 -208 71 -264 q 110 -119 71 -151 q 211 -86 149 -86 q 284 -100 247 -86 q 350 -135 321 -114 q 404 35 376 -73 l 509 7 q 411 -187 470 -106 q 463 -249 422 -198 q 509 -194 485 -231 q 547 -125 533 -158 q 685 -237 619 -170 l 685 485 q 635 664 685 611 q 484 717 586 717 q 344 671 395 717 q 288 541 293 626 q 380 507 334 534 q 454 449 427 481 l 454 437 q 341 379 376 422 q 307 265 307 337 l 307 117 q 271 22 307 56 q 168 -12 235 -12 q 66 22 102 -12 q 31 117 31 56 q 65 213 31 178 q 160 248 99 248 q 193 244 185 248 l 193 267 q 343 454 193 422 q 261 493 316 477 q 171 509 206 509 q 260 713 180 648 q 494 778 340 778 q 724 706 649 778 q 799 472 799 633 l 799 -277 l 728 -353 l 692 -353 q 566 -211 618 -255 q 515 -277 551 -239 q 446 -338 479 -315 q 371 -241 412 -282 q 208 -329 299 -329 z "},"ฐ":{"ha":782,"x_min":57,"x_max":742,"o":"m 192 -144 q 142 -160 161 -144 q 123 -207 123 -176 q 142 -255 123 -239 q 186 -271 160 -271 q 293 -192 251 -271 q 192 -144 236 -144 m 510 -267 q 461 -309 489 -288 q 418 -338 434 -330 q 343 -241 384 -282 q 272 -306 309 -283 q 186 -329 235 -329 q 92 -298 127 -329 q 57 -208 57 -267 q 93 -118 57 -150 q 189 -86 128 -86 q 322 -135 256 -86 q 358 -33 338 -100 l 452 -66 q 383 -187 421 -134 q 435 -249 394 -198 q 501 -191 460 -233 q 628 -264 575 -224 l 628 -187 q 612 -189 625 -189 q 556 -169 578 -189 q 534 -113 534 -149 q 557 -55 534 -76 q 623 -35 581 -35 q 690 -55 665 -35 q 714 -114 714 -76 l 714 -297 l 643 -353 l 628 -353 q 510 -267 568 -298 m 583 -113 q 618 -146 583 -146 q 652 -113 652 -146 q 618 -78 652 -78 q 583 -113 583 -78 m 87 541 q 137 712 87 661 q 301 764 187 764 q 534 748 368 764 l 582 745 q 689 774 650 745 l 714 791 l 742 761 q 707 722 724 741 q 666 688 690 703 q 610 665 642 673 q 530 656 577 656 l 481 659 q 298 671 320 671 q 171 644 205 671 q 138 553 138 617 l 397 553 q 615 494 545 553 q 685 309 685 435 l 685 212 q 644 37 685 88 q 507 -14 604 -14 q 403 4 441 -14 q 339 64 366 22 q 290 189 313 106 q 220 175 255 175 q 117 209 153 175 q 82 304 82 243 q 118 400 82 365 q 220 435 154 435 q 318 397 281 435 q 383 269 356 359 l 422 143 q 458 66 439 90 q 505 43 477 43 q 556 74 541 43 q 571 182 571 105 l 571 296 q 522 448 571 403 q 364 493 473 493 l 87 493 l 87 541 m 151 304 q 170 253 151 272 q 221 235 189 235 q 273 253 254 235 q 292 304 292 272 q 273 356 292 337 q 221 375 254 375 q 170 356 189 375 q 151 304 151 337 z "},"ฑ":{"ha":1023,"x_min":40,"x_max":913,"o":"m 799 0 l 799 628 q 774 686 799 686 q 744 665 758 686 q 710 597 729 644 l 465 0 l 326 0 l 326 335 q 353 475 326 423 q 436 564 380 528 q 418 638 433 603 q 380 692 402 673 l 294 616 l 196 704 q 114 574 128 673 q 153 600 127 589 q 204 610 179 610 q 284 579 254 610 q 314 494 314 549 q 281 411 314 442 q 191 379 248 379 q 78 421 117 379 q 40 539 40 464 q 84 687 40 623 q 203 774 129 752 l 294 690 l 386 774 q 491 694 451 751 q 536 562 530 637 q 478 504 499 533 q 449 442 458 475 q 440 339 440 408 l 440 119 l 642 615 q 713 744 680 709 q 802 778 747 778 q 886 743 859 778 q 913 628 913 709 l 913 81 l 844 0 l 799 0 m 250 494 q 233 536 250 520 q 189 553 216 553 q 146 536 163 553 q 129 494 129 520 q 146 451 129 467 q 189 435 163 435 q 233 451 216 435 q 250 494 250 467 z "},"ฒ":{"ha":1192,"x_min":77,"x_max":1080,"o":"m 755 268 q 874 216 823 252 q 966 131 924 180 l 966 684 l 1035 764 l 1080 764 l 1080 0 l 966 0 q 858 142 908 94 q 755 210 808 191 l 755 143 q 720 27 755 66 q 604 -12 684 -12 q 502 21 536 -12 q 467 110 467 54 q 512 220 467 177 q 642 272 558 262 l 642 484 q 539 700 642 651 l 419 593 l 298 700 q 207 628 238 677 q 175 514 175 579 q 186 424 175 471 q 211 327 197 377 q 236 222 225 276 q 248 111 248 168 l 340 200 q 427 313 398 256 q 319 346 357 313 q 282 441 282 380 q 318 537 282 503 q 419 571 353 571 q 521 535 486 571 q 557 431 557 500 q 525 307 557 362 q 437 199 494 252 q 233 0 277 47 l 134 0 l 134 94 q 105 326 134 223 q 82 421 88 386 q 77 494 77 456 q 135 677 77 602 q 300 775 194 751 l 419 669 l 539 775 q 700 674 645 751 q 755 472 755 597 l 755 268 m 530 110 q 548 61 530 78 q 589 45 565 45 q 642 107 642 45 l 642 218 q 560 182 590 210 q 530 110 530 153 m 490 440 q 472 492 490 473 q 421 511 454 511 q 369 492 389 511 q 350 440 350 473 q 369 389 350 408 q 421 371 389 371 q 472 389 454 371 q 490 440 490 408 z "},"ณ":{"ha":1293,"x_min":90,"x_max":1253,"o":"m 319 117 q 301 168 319 149 q 250 186 283 186 q 198 168 218 186 q 179 117 179 149 q 198 65 179 84 q 250 46 218 46 q 301 65 283 46 q 319 117 319 84 m 1189 110 q 1159 182 1189 154 q 1078 218 1130 210 l 1078 107 q 1092 61 1078 77 q 1131 45 1105 45 q 1172 61 1154 45 q 1189 110 1189 78 m 964 684 l 1032 764 l 1078 764 l 1078 272 q 1207 220 1161 262 q 1253 110 1253 177 q 1218 21 1253 54 q 1116 -12 1183 -12 q 1000 26 1036 -12 q 964 143 964 65 l 964 210 q 718 0 812 154 l 604 0 l 604 485 q 555 664 604 611 q 403 717 505 717 q 263 671 315 717 q 207 541 212 626 q 300 507 253 534 q 374 449 347 481 l 374 437 q 261 379 295 422 q 227 265 227 337 l 227 243 q 260 245 233 245 q 355 212 321 245 q 389 117 389 178 q 353 22 389 56 q 252 -12 317 -12 q 149 22 184 -12 q 113 117 113 56 l 113 267 q 262 454 113 422 q 180 493 237 477 q 90 509 124 509 q 180 713 100 648 q 414 778 260 778 q 644 706 570 778 q 718 472 718 633 l 718 114 q 964 262 817 227 l 964 684 z "},"ด":{"ha":867,"x_min":77,"x_max":755,"o":"m 134 0 l 134 94 q 105 326 134 223 q 82 421 88 386 q 77 494 77 456 q 168 702 77 626 q 419 778 258 778 q 671 702 587 778 q 755 472 755 626 l 755 81 l 688 0 l 642 0 l 642 484 q 419 715 642 715 q 240 661 306 715 q 175 514 175 606 q 186 425 175 471 q 211 327 197 378 q 236 218 225 275 q 248 96 248 160 q 335 164 281 125 q 395 212 368 189 q 432 257 421 235 q 325 291 362 257 q 288 386 288 324 q 323 481 288 447 q 425 515 359 515 q 527 480 491 515 q 562 375 562 444 q 530 253 562 304 q 422 146 498 202 q 321 71 371 107 q 233 0 272 34 l 134 0 m 496 385 q 477 436 496 417 q 427 456 459 456 q 375 436 394 456 q 355 385 355 417 q 375 334 355 352 q 427 315 394 315 q 477 334 459 315 q 496 385 496 352 z "},"ต":{"ha":867,"x_min":77,"x_max":755,"o":"m 77 494 q 135 677 77 602 q 300 775 194 751 l 419 669 l 539 775 q 700 674 645 751 q 755 472 755 597 l 755 81 l 688 0 l 642 0 l 642 484 q 539 700 642 651 l 419 593 l 298 700 q 207 628 238 677 q 175 514 175 579 q 186 425 175 471 q 211 327 197 378 q 236 218 225 275 q 248 96 248 160 q 335 164 281 125 q 395 212 368 189 q 432 257 421 235 q 325 291 362 257 q 288 386 288 324 q 323 481 288 447 q 425 515 359 515 q 527 480 491 515 q 562 375 562 444 q 530 253 562 304 q 422 146 498 202 q 321 71 371 107 q 233 0 272 34 l 134 0 l 134 94 q 105 326 134 223 q 82 421 88 386 q 77 494 77 456 m 496 385 q 477 436 496 417 q 427 456 459 456 q 375 436 394 456 q 355 385 355 417 q 375 334 355 352 q 427 315 394 315 q 477 334 459 315 q 496 385 496 352 z "},"ถ":{"ha":829,"x_min":90,"x_max":718,"o":"m 227 243 q 260 245 233 245 q 355 212 321 245 q 389 117 389 178 q 353 22 389 56 q 252 -12 317 -12 q 149 22 184 -12 q 113 117 113 56 l 113 267 q 262 454 113 422 q 180 493 237 477 q 90 509 124 509 q 180 713 100 648 q 414 778 260 778 q 644 706 570 778 q 718 472 718 633 l 718 81 l 650 0 l 604 0 l 604 485 q 555 664 604 611 q 403 717 505 717 q 263 671 315 717 q 207 541 212 626 q 300 507 253 534 q 374 449 347 481 l 374 437 q 261 379 295 422 q 227 265 227 337 l 227 243 m 319 117 q 301 168 319 149 q 250 186 283 186 q 198 168 218 186 q 179 117 179 149 q 198 65 179 84 q 250 46 218 46 q 301 65 283 46 q 319 117 319 84 z "},"ท":{"ha":890,"x_min":31,"x_max":779,"o":"m 193 514 q 160 511 186 511 q 65 545 99 511 q 31 640 31 578 q 66 736 31 701 q 168 771 102 771 q 271 736 235 771 q 307 640 307 701 l 307 298 l 310 298 l 457 615 q 540 744 501 711 q 646 778 579 778 q 779 628 779 778 l 779 81 l 711 0 l 665 0 l 665 628 q 616 686 665 686 q 567 663 588 686 q 517 579 546 640 l 307 136 l 307 0 l 193 0 l 193 514 m 100 640 q 118 589 100 608 q 170 571 137 571 q 221 589 202 571 q 240 640 240 608 q 221 692 240 673 q 170 711 202 711 q 118 692 137 711 q 100 640 100 673 z "},"ธ":{"ha":789,"x_min":94,"x_max":721,"o":"m 578 296 q 529 448 578 403 q 371 493 480 493 l 94 493 l 94 541 q 140 715 94 667 q 294 764 185 764 q 515 748 359 764 l 561 745 q 669 774 628 745 l 693 791 l 721 761 q 686 722 703 741 q 645 688 669 703 q 589 665 621 673 q 510 656 557 656 l 463 659 q 292 671 313 671 q 198 660 227 671 q 157 624 170 649 q 144 553 144 598 l 404 553 q 622 494 552 553 q 692 309 692 435 l 692 240 q 630 63 692 127 q 457 0 568 0 l 118 0 l 118 275 l 186 355 l 232 355 l 232 58 l 403 58 q 578 262 578 58 l 578 296 z "},"น":{"ha":882,"x_min":31,"x_max":842,"o":"m 100 640 q 118 589 100 608 q 170 571 137 571 q 221 589 202 571 q 240 640 240 608 q 221 692 240 673 q 170 711 202 711 q 118 692 137 711 q 100 640 100 673 m 778 110 q 748 182 778 154 q 667 218 718 210 l 667 107 q 681 61 667 77 q 720 45 694 45 q 761 61 743 45 q 778 110 778 78 m 307 114 q 553 262 406 227 l 553 684 l 621 764 l 667 764 l 667 272 q 796 220 750 262 q 842 110 842 177 q 807 21 842 54 q 704 -12 772 -12 q 589 26 625 -12 q 553 143 553 65 l 553 210 q 307 0 401 154 l 193 0 l 193 514 q 160 511 186 511 q 65 545 99 511 q 31 640 31 578 q 66 736 31 701 q 168 771 102 771 q 271 736 235 771 q 307 640 307 701 l 307 114 z "},"บ":{"ha":854,"x_min":31,"x_max":743,"o":"m 100 642 q 118 591 100 609 q 170 572 137 572 q 221 591 202 572 q 240 642 240 609 q 221 693 240 674 q 170 713 202 713 q 118 693 137 713 q 100 642 100 674 m 307 58 l 464 58 q 587 113 544 58 q 629 264 629 168 l 629 684 l 697 764 l 743 764 l 743 240 q 682 63 743 127 q 509 0 620 0 l 83 0 l 83 58 l 193 58 l 193 515 q 160 513 186 513 q 65 546 99 513 q 31 642 31 580 q 66 737 31 703 q 168 771 102 771 q 271 737 235 771 q 307 642 307 703 l 307 58 z "},"ป":{"ha":854,"x_min":31,"x_max":743,"o":"m 100 642 q 118 591 100 609 q 170 572 137 572 q 221 591 202 572 q 240 642 240 609 q 221 693 240 674 q 170 713 202 713 q 118 693 137 713 q 100 642 100 674 m 307 58 l 464 58 q 587 113 544 58 q 629 264 629 168 l 629 1065 l 697 1146 l 743 1146 l 743 240 q 682 63 743 127 q 509 0 620 0 l 83 0 l 83 58 l 193 58 l 193 515 q 160 513 186 513 q 65 546 99 513 q 31 642 31 580 q 66 737 31 703 q 168 771 102 771 q 271 737 235 771 q 307 642 307 703 l 307 58 z "},"ผ":{"ha":897,"x_min":125,"x_max":786,"o":"m 332 642 q 313 693 332 674 q 262 713 295 713 q 211 693 230 713 q 192 642 192 674 q 211 591 192 609 q 262 572 230 572 q 313 591 295 572 q 332 642 332 609 m 663 0 q 616 101 643 57 q 562 185 590 144 q 507 269 534 226 q 456 366 479 311 q 405 269 433 311 q 349 185 377 226 q 295 101 321 144 q 249 0 269 57 l 125 0 l 125 642 q 161 737 125 703 q 264 771 197 771 q 366 737 330 771 q 401 642 401 703 q 367 546 401 580 q 272 513 333 513 q 239 515 245 513 l 239 123 q 282 207 257 169 q 333 282 307 244 q 382 361 359 320 q 422 456 406 403 l 489 456 q 529 361 505 403 q 578 282 553 320 q 629 207 604 244 q 672 123 654 169 l 672 684 l 741 764 l 786 764 l 786 81 l 720 0 l 663 0 z "},"ฝ":{"ha":897,"x_min":125,"x_max":786,"o":"m 332 642 q 313 693 332 674 q 262 713 295 713 q 211 693 230 713 q 192 642 192 674 q 211 591 192 609 q 262 572 230 572 q 313 591 295 572 q 332 642 332 609 m 663 0 q 616 101 643 57 q 562 185 590 144 q 507 269 534 226 q 456 366 479 311 q 405 269 433 311 q 349 185 377 226 q 295 101 321 144 q 249 0 269 57 l 125 0 l 125 642 q 161 737 125 703 q 264 771 197 771 q 366 737 330 771 q 401 642 401 703 q 367 546 401 580 q 272 513 333 513 q 239 515 245 513 l 239 123 q 282 207 257 169 q 333 282 307 244 q 382 361 359 320 q 422 456 406 403 l 489 456 q 529 361 505 403 q 578 282 553 320 q 629 207 604 244 q 672 123 654 169 l 672 1065 l 741 1146 l 786 1146 l 786 81 l 720 0 l 663 0 z "},"พ":{"ha":966,"x_min":31,"x_max":856,"o":"m 100 640 q 118 589 100 608 q 170 571 137 571 q 221 589 202 571 q 240 640 240 608 q 221 692 240 673 q 170 711 202 711 q 118 692 137 711 q 100 640 100 673 m 789 0 l 717 0 l 524 654 l 332 0 l 193 0 l 193 514 q 160 511 186 511 q 65 545 99 511 q 31 640 31 578 q 66 736 31 701 q 168 771 102 771 q 271 736 235 771 q 307 640 307 701 l 307 151 l 489 757 l 559 757 l 742 151 l 742 684 l 810 764 l 856 764 l 856 81 l 789 0 z "},"ฟ":{"ha":966,"x_min":31,"x_max":856,"o":"m 100 640 q 118 589 100 608 q 170 571 137 571 q 221 589 202 571 q 240 640 240 608 q 221 692 240 673 q 170 711 202 711 q 118 692 137 711 q 100 640 100 673 m 789 0 l 717 0 l 524 654 l 332 0 l 193 0 l 193 514 q 160 511 186 511 q 65 545 99 511 q 31 640 31 578 q 66 736 31 701 q 168 771 102 771 q 271 736 235 771 q 307 640 307 701 l 307 151 l 489 757 l 559 757 l 742 151 l 742 1065 l 810 1146 l 856 1146 l 856 81 l 789 0 z "},"ภ":{"ha":892,"x_min":31,"x_max":799,"o":"m 193 267 q 343 454 193 422 q 261 493 316 477 q 171 509 206 509 q 260 713 180 648 q 494 778 340 778 q 724 706 649 778 q 799 472 799 633 l 799 81 l 730 0 l 685 0 l 685 485 q 635 664 685 611 q 484 717 586 717 q 344 671 395 717 q 288 541 293 626 q 380 507 334 534 q 454 449 427 481 l 454 437 q 341 379 376 422 q 307 265 307 337 l 307 117 q 271 22 307 56 q 168 -12 235 -12 q 66 22 102 -12 q 31 117 31 56 q 65 213 31 178 q 160 248 99 248 q 193 244 185 248 l 193 267 m 100 118 q 118 66 100 85 q 170 47 137 47 q 221 66 202 47 q 240 118 240 85 q 221 169 240 151 q 170 187 202 187 q 118 169 137 187 q 100 118 100 151 z "},"ม":{"ha":818,"x_min":58,"x_max":707,"o":"m 140 640 q 159 589 140 608 q 210 571 177 571 q 261 589 242 571 q 281 640 281 608 q 261 692 281 673 q 210 711 242 711 q 159 692 177 711 q 140 640 140 673 m 122 110 q 139 61 122 78 q 180 45 157 45 q 219 61 205 45 q 233 107 233 77 l 233 218 q 152 182 182 210 q 122 110 122 153 m 707 0 l 593 0 q 347 210 498 155 l 347 143 q 311 26 347 65 q 196 -12 275 -12 q 93 21 128 -12 q 58 110 58 54 q 104 220 58 177 q 233 272 150 262 l 233 514 q 200 511 227 511 q 105 545 139 511 q 71 640 71 578 q 106 736 71 701 q 208 771 142 771 q 311 736 275 771 q 347 640 347 701 l 347 262 q 593 114 493 227 l 593 684 l 661 764 l 707 764 l 707 0 z "},"ย":{"ha":770,"x_min":90,"x_max":659,"o":"m 180 640 q 199 589 180 608 q 250 571 218 571 q 302 589 283 571 q 321 640 321 608 q 302 692 321 673 q 250 711 283 711 q 199 692 218 711 q 180 640 180 673 m 326 0 q 150 59 209 0 q 92 225 92 117 q 126 343 92 298 q 224 401 161 389 q 160 438 193 407 q 109 513 127 469 q 90 611 90 557 q 134 728 92 684 q 252 771 176 771 q 353 737 317 771 q 389 642 389 703 q 353 546 389 580 q 252 513 317 513 q 224 515 235 513 q 269 449 235 471 q 345 422 302 427 l 345 382 q 205 231 205 365 q 244 103 205 147 q 371 58 283 58 l 379 58 q 545 232 545 58 l 545 684 l 612 764 l 659 764 l 659 225 q 600 59 659 117 q 424 0 541 0 l 326 0 z "},"ร":{"ha":701,"x_min":47,"x_max":672,"o":"m 318 118 q 336 66 318 85 q 387 47 355 47 q 439 66 420 47 q 458 118 458 85 q 439 169 458 151 q 387 187 420 187 q 336 169 355 187 q 318 118 318 151 m 411 296 q 362 448 411 403 q 204 493 313 493 l 47 493 l 47 541 q 97 712 47 661 q 261 764 147 764 q 469 748 324 764 l 513 745 q 620 774 579 745 l 644 791 l 672 761 q 603 692 628 709 q 543 665 577 675 q 461 656 509 656 q 363 663 439 656 q 258 671 286 671 q 131 644 164 671 q 97 553 97 616 l 237 553 q 455 494 385 553 q 525 309 525 435 l 525 117 q 489 22 525 56 q 386 -12 453 -12 q 284 22 320 -12 q 249 117 249 56 q 283 213 249 178 q 378 248 317 248 q 411 244 402 248 l 411 296 z "},"ฤ":{"ha":829,"x_min":90,"x_max":718,"o":"m 227 243 q 260 245 233 245 q 355 212 321 245 q 389 117 389 178 q 353 22 389 56 q 252 -12 317 -12 q 149 22 184 -12 q 113 117 113 56 l 113 267 q 262 454 113 422 q 180 493 237 477 q 90 509 124 509 q 180 713 100 648 q 414 778 260 778 q 644 706 570 778 q 718 472 718 633 l 718 -272 l 650 -353 l 604 -353 l 604 485 q 555 664 604 611 q 403 717 505 717 q 263 671 315 717 q 207 541 212 626 q 300 507 253 534 q 374 449 347 481 l 374 437 q 261 379 295 422 q 227 265 227 337 l 227 243 m 319 117 q 301 168 319 149 q 250 186 283 186 q 198 168 218 186 q 179 117 179 149 q 198 65 179 84 q 250 46 218 46 q 301 65 283 46 q 319 117 319 84 z "},"ล":{"ha":822,"x_min":81,"x_max":711,"o":"m 211 243 q 244 245 218 245 q 339 212 305 245 q 374 117 374 178 q 338 22 374 56 q 236 -12 302 -12 q 133 22 169 -12 q 97 117 97 56 l 97 243 q 154 405 97 353 q 321 457 210 457 q 597 236 485 457 l 597 465 q 541 649 597 586 q 383 711 485 711 q 113 631 239 711 l 81 684 q 396 778 218 778 q 631 699 550 778 q 711 475 711 619 l 711 81 l 643 0 l 597 0 l 597 118 q 470 320 539 251 q 328 390 400 390 q 211 268 211 390 l 211 243 m 304 117 q 286 168 304 149 q 235 186 267 186 q 183 168 202 186 q 164 117 164 149 q 183 65 164 84 q 235 46 202 46 q 286 65 267 46 q 304 117 304 84 z "},"ฦ":{"ha":909,"x_min":31,"x_max":799,"o":"m 193 267 q 343 454 193 422 q 261 493 316 477 q 171 509 206 509 q 260 713 180 648 q 494 778 340 778 q 724 706 649 778 q 799 472 799 633 l 799 -272 l 730 -353 l 685 -353 l 685 485 q 635 664 685 611 q 484 717 586 717 q 344 671 395 717 q 288 541 293 626 q 380 507 334 534 q 454 449 427 481 l 454 437 q 341 379 376 422 q 307 265 307 337 l 307 117 q 271 22 307 56 q 168 -12 235 -12 q 66 22 102 -12 q 31 117 31 56 q 65 213 31 178 q 160 248 99 248 q 193 244 185 248 l 193 267 m 100 118 q 118 66 100 85 q 170 47 137 47 q 221 66 202 47 q 240 118 240 85 q 221 169 240 151 q 170 187 202 187 q 118 169 137 187 q 100 118 100 151 z "},"ว":{"ha":669,"x_min":-3,"x_max":558,"o":"m 558 117 q 523 22 558 56 q 419 -12 487 -12 q 318 22 353 -12 q 282 117 282 56 q 316 213 282 178 q 411 248 350 248 q 444 244 436 248 l 444 465 q 397 648 444 585 q 264 711 351 711 q 160 695 211 711 q 29 631 109 679 l -3 684 q 285 778 136 778 q 558 473 558 778 l 558 117 m 351 118 q 370 66 351 85 q 421 47 389 47 q 473 66 454 47 q 492 118 492 85 q 473 169 492 151 q 421 187 454 187 q 370 169 389 187 q 351 118 351 151 z "},"ศ":{"ha":867,"x_min":77,"x_max":873,"o":"m 306 317 q 264 228 280 289 q 248 86 249 167 l 248 0 l 134 0 l 134 94 q 105 326 134 223 q 82 421 88 386 q 77 494 77 456 q 168 702 77 626 q 419 778 258 778 q 668 704 583 778 q 747 818 711 758 l 873 818 q 725 631 815 715 q 755 472 755 563 l 755 81 l 688 0 l 642 0 l 642 484 q 635 558 642 523 q 511 484 574 516 q 550 386 550 449 q 514 291 550 324 q 412 257 478 257 q 306 317 338 257 m 604 635 q 419 715 551 715 q 240 661 306 715 q 175 514 175 606 q 182 441 175 477 q 212 339 190 406 l 228 278 q 276 423 252 377 q 333 492 300 469 q 412 515 367 515 q 453 511 433 515 q 604 635 544 572 m 342 385 q 360 334 342 352 q 411 315 378 315 q 463 334 444 315 q 482 385 482 352 q 463 436 482 417 q 411 456 444 456 q 360 436 378 456 q 342 385 342 417 z "},"ษ":{"ha":854,"x_min":31,"x_max":921,"o":"m 307 58 l 464 58 q 587 113 544 58 q 629 264 629 168 l 629 298 q 509 282 572 282 q 343 411 343 282 q 378 497 343 466 q 471 528 412 528 q 563 497 530 528 q 596 418 596 467 q 586 369 596 389 q 567 340 576 349 q 629 361 600 349 l 629 684 l 697 764 l 743 764 l 743 436 q 839 578 799 492 l 921 528 q 743 336 845 401 l 743 240 q 682 63 743 127 q 509 0 620 0 l 83 0 l 83 58 l 193 58 l 193 515 q 160 513 186 513 q 65 546 99 513 q 31 642 31 580 q 66 737 31 703 q 168 771 102 771 q 271 737 235 771 q 307 642 307 703 l 307 58 m 100 642 q 118 591 100 609 q 170 572 137 572 q 221 591 202 572 q 240 642 240 609 q 221 693 240 674 q 170 713 202 713 q 118 693 137 713 q 100 642 100 674 m 410 410 q 426 368 410 384 q 471 351 442 351 q 513 368 496 351 q 530 410 530 384 q 513 454 530 438 q 471 469 496 469 q 426 454 442 469 q 410 410 410 438 z "},"ส":{"ha":822,"x_min":81,"x_max":829,"o":"m 211 243 q 244 245 218 245 q 339 212 305 245 q 374 117 374 178 q 338 22 374 56 q 236 -12 302 -12 q 133 22 169 -12 q 97 117 97 56 l 97 243 q 153 404 97 353 q 318 457 208 456 q 554 629 456 532 q 383 711 498 711 q 113 631 239 711 l 81 684 q 396 778 218 778 q 624 704 542 778 q 703 818 665 757 l 829 818 q 679 629 767 709 q 711 475 711 562 l 711 81 l 643 0 l 597 0 l 597 118 q 470 320 539 251 q 328 390 400 390 q 211 268 211 390 l 211 243 m 597 236 l 597 465 q 586 555 597 513 q 389 446 499 495 q 498 378 447 428 q 597 236 549 328 m 304 117 q 286 168 304 149 q 235 186 267 186 q 183 168 202 186 q 164 117 164 149 q 183 65 164 84 q 235 46 202 46 q 286 65 267 46 q 304 117 304 84 z "},"ห":{"ha":889,"x_min":31,"x_max":778,"o":"m 307 0 l 193 0 l 193 514 q 160 511 186 511 q 65 545 99 511 q 31 640 31 578 q 66 736 31 701 q 168 771 102 771 q 271 736 235 771 q 307 640 307 701 l 307 200 q 424 363 345 275 q 586 511 503 450 q 523 574 546 540 q 500 646 500 608 q 537 739 500 707 q 637 771 574 771 q 740 738 702 771 q 778 647 778 705 q 704 522 778 581 q 761 452 743 492 q 778 339 778 412 l 778 81 l 710 0 l 664 0 l 664 346 q 653 428 664 394 q 628 473 642 461 q 307 0 387 266 m 100 640 q 118 589 100 608 q 170 571 137 571 q 221 589 202 571 q 240 640 240 608 q 221 692 240 673 q 170 711 202 711 q 118 692 137 711 q 100 640 100 673 m 637 711 q 590 694 608 711 q 572 647 572 677 q 643 555 572 595 q 703 646 703 600 q 684 695 703 678 q 637 711 665 711 z "},"ฬ":{"ha":966,"x_min":31,"x_max":1069,"o":"m 717 0 l 524 654 l 332 0 l 193 0 l 193 514 q 160 511 186 511 q 65 545 99 511 q 31 640 31 578 q 66 736 31 701 q 168 771 102 771 q 271 736 235 771 q 307 640 307 701 l 307 151 l 489 757 l 559 757 l 742 151 l 742 724 q 641 765 680 729 q 602 860 602 801 q 636 944 602 912 q 729 977 671 977 q 821 947 787 977 q 854 867 854 917 q 844 815 854 838 q 819 781 833 792 q 912 854 875 804 q 977 993 949 905 l 1069 960 q 856 733 1003 772 l 856 0 l 717 0 m 100 640 q 118 589 100 608 q 170 571 137 571 q 221 589 202 571 q 240 640 240 608 q 221 692 240 673 q 170 711 202 711 q 118 692 137 711 q 100 640 100 673 m 668 859 q 684 816 668 832 q 729 800 701 800 q 771 816 754 800 q 789 859 789 832 q 771 903 789 887 q 729 918 754 918 q 684 903 701 918 q 668 859 668 887 z "},"อ":{"ha":831,"x_min":89,"x_max":720,"o":"m 318 418 q 300 470 318 450 q 249 489 281 489 q 197 470 216 489 q 178 418 178 450 q 197 367 178 385 q 249 349 216 349 q 300 367 281 349 q 318 418 318 385 m 606 464 q 549 647 606 585 q 392 710 493 710 q 121 629 250 710 l 89 682 q 404 777 231 777 q 639 697 558 777 q 720 473 720 618 l 720 225 q 661 59 720 117 q 485 0 602 0 l 346 0 q 170 59 229 0 q 111 225 111 117 l 111 418 q 147 513 111 479 q 250 547 183 547 q 352 513 316 547 q 387 418 387 479 q 353 322 387 356 q 258 289 319 289 q 225 292 232 289 l 225 231 q 264 103 225 147 q 390 58 302 58 l 440 58 q 606 232 606 58 l 606 464 z "},"ฮ":{"ha":831,"x_min":109,"x_max":802,"o":"m 318 361 q 300 413 318 393 q 249 432 281 432 q 197 413 216 432 q 178 361 178 393 q 197 310 178 328 q 249 292 216 292 q 300 310 281 292 q 318 361 318 328 m 720 225 q 661 59 720 117 q 485 0 602 0 l 346 0 q 170 59 229 0 q 111 225 111 117 l 111 361 q 147 456 111 422 q 250 490 183 490 q 352 456 316 490 q 387 361 387 422 q 353 266 387 299 q 258 232 319 232 q 225 235 232 232 l 225 231 q 264 103 225 147 q 390 58 302 58 l 440 58 q 606 232 606 58 l 606 526 q 603 555 606 539 q 599 575 601 570 q 488 538 553 551 q 359 525 424 525 q 175 559 241 525 q 109 652 109 593 q 180 744 109 710 q 372 778 251 778 q 636 714 542 778 q 676 818 663 754 l 802 818 q 761 715 789 768 q 703 633 732 663 q 720 534 720 593 l 720 225 m 389 729 q 271 707 315 729 q 227 650 227 685 q 263 596 227 615 q 364 576 300 576 q 585 643 500 576 q 507 706 563 682 q 389 729 452 729 z "},"ฯ":{"ha":743,"x_min":31,"x_max":632,"o":"m 97 610 q 113 568 97 584 q 158 551 130 551 q 201 568 184 551 q 218 610 218 584 q 201 654 218 638 q 158 669 184 669 q 113 654 130 669 q 97 610 97 638 m 632 764 l 632 81 l 564 0 l 518 0 l 518 618 q 357 504 436 539 q 199 468 279 468 q 75 506 119 468 q 31 611 31 544 q 65 697 31 666 q 158 728 100 728 q 251 697 218 728 q 283 611 283 666 q 272 559 283 583 q 245 525 260 536 q 411 609 340 547 q 524 764 481 671 l 632 764 z "},"ะ":{"ha":679,"x_min":54,"x_max":632,"o":"m 278 472 q 436 553 367 493 q 550 710 506 613 l 632 660 q 456 477 562 541 q 222 414 350 414 q 97 446 140 414 q 54 543 54 479 q 89 629 54 597 q 182 660 123 660 q 274 629 241 660 q 307 550 307 599 q 297 501 307 522 q 278 472 288 481 m 121 542 q 137 500 121 516 q 182 484 153 484 q 224 500 207 484 q 241 542 241 516 q 224 586 241 570 q 182 602 207 602 q 137 586 153 602 q 121 542 121 570 m 278 140 q 437 221 367 161 q 550 378 507 281 l 632 328 q 456 146 562 210 q 222 82 350 82 q 97 115 140 82 q 54 211 54 147 q 89 297 54 266 q 182 328 123 328 q 274 297 241 328 q 307 218 307 267 q 297 169 307 190 q 278 140 288 149 m 121 210 q 137 168 121 184 q 182 151 153 151 q 224 168 207 151 q 241 210 241 184 q 224 254 241 238 q 182 269 207 269 q 137 254 153 269 q 121 210 121 238 z "},"ั":{"ha":0,"x_min":-441,"x_max":74,"o":"m -278 829 q -396 867 -351 829 q -441 965 -441 905 q -407 1050 -441 1019 q -314 1082 -373 1082 q -223 1052 -256 1082 q -189 972 -189 1021 q -200 921 -189 944 q -224 886 -210 898 q -31 1099 -96 912 l 74 1065 q -54 888 32 947 q -278 829 -139 829 m -375 964 q -359 922 -375 938 q -314 905 -342 905 q -272 922 -289 905 q -254 964 -254 938 q -272 1008 -254 992 q -314 1023 -289 1023 q -359 1008 -342 1023 q -375 964 -375 992 z "},"า":{"ha":669,"x_min":-3,"x_max":558,"o":"m 558 81 l 490 0 l 444 0 l 444 465 q 397 648 444 585 q 264 711 351 711 q 160 695 211 711 q 29 631 109 679 l -3 684 q 285 778 136 778 q 558 472 558 778 l 558 81 z "},"ำ":{"ha":669,"x_min":-313,"x_max":558,"o":"m -313 951 q -281 1037 -313 1006 q -189 1068 -249 1068 q -95 1037 -128 1068 q -62 951 -62 1006 q -95 865 -62 896 q -189 835 -128 835 q -281 865 -249 835 q -313 951 -313 896 m -252 951 q -234 906 -252 923 q -187 889 -216 889 q -142 906 -160 889 q -123 951 -123 923 q -142 997 -123 980 q -187 1014 -160 1014 q -234 997 -216 1014 q -252 951 -252 980 m 558 81 l 490 0 l 444 0 l 444 465 q 397 648 444 585 q 264 711 351 711 q 160 695 211 711 q 29 631 109 679 l -3 684 q 285 778 136 778 q 558 472 558 778 l 558 81 z "},"ิ":{"ha":0,"x_min":-713,"x_max":-125,"o":"m -125 818 q -432 869 -298 854 q -713 884 -566 884 q -618 1043 -690 986 q -447 1100 -547 1100 q -238 1028 -322 1100 q -125 818 -154 956 m -435 1018 q -600 932 -562 1018 q -394 917 -491 932 q -211 882 -298 901 q -296 981 -239 943 q -435 1018 -353 1018 z "},"ี":{"ha":0,"x_min":-713,"x_max":-125,"o":"m -125 818 q -432 869 -298 854 q -713 884 -566 884 q -618 1043 -690 986 q -447 1100 -547 1100 q -224 1014 -310 1100 l -224 1147 l -149 1147 l -149 897 q -125 818 -134 860 m -435 1018 q -600 932 -562 1018 q -394 917 -491 932 q -211 882 -298 901 q -296 981 -239 943 q -435 1018 -353 1018 z "},"ึ":{"ha":0,"x_min":-713,"x_max":-58,"o":"m -125 818 q -432 869 -298 854 q -713 884 -566 884 q -618 1043 -690 986 q -447 1100 -547 1100 q -281 1059 -353 1100 q -240 1115 -269 1093 q -172 1137 -210 1137 q -91 1105 -123 1137 q -58 1023 -58 1072 q -84 950 -58 982 q -154 911 -110 918 q -125 818 -137 875 m -435 1018 q -600 932 -562 1018 q -394 917 -491 932 q -211 882 -298 901 q -296 981 -239 943 q -435 1018 -353 1018 m -227 1023 q -210 984 -227 1000 q -171 968 -194 968 q -132 985 -148 968 q -115 1023 -115 1002 q -132 1063 -115 1045 q -171 1080 -149 1080 q -210 1063 -194 1080 q -227 1023 -227 1046 z "},"ื":{"ha":0,"x_min":-713,"x_max":-125,"o":"m -125 818 q -432 869 -298 854 q -713 884 -566 884 q -618 1043 -690 986 q -447 1100 -547 1100 q -364 1090 -399 1100 l -364 1147 l -289 1147 l -289 1063 q -221 1011 -245 1038 l -221 1147 l -146 1147 l -146 890 q -125 818 -136 864 m -435 1018 q -600 932 -562 1018 q -394 917 -491 932 q -211 882 -298 901 q -296 981 -239 943 q -435 1018 -353 1018 z "},"ุ":{"ha":0,"x_min":-300,"x_max":-122,"o":"m -208 -353 l -208 -221 q -224 -224 -212 -224 q -300 -147 -300 -224 q -214 -69 -300 -69 q -146 -90 -171 -69 q -122 -149 -122 -111 l -122 -353 l -208 -353 m -253 -147 q -218 -180 -253 -180 q -184 -147 -184 -180 q -218 -113 -184 -113 q -253 -147 -253 -113 z "},"ู":{"ha":0,"x_min":-507,"x_max":-122,"o":"m -414 -355 l -414 -221 q -429 -224 -418 -224 q -507 -147 -507 -224 q -419 -69 -507 -69 q -352 -90 -376 -69 q -328 -149 -328 -111 l -328 -294 l -208 -294 l -208 -79 l -122 -79 l -122 -355 l -414 -355 m -458 -147 q -424 -180 -458 -180 q -390 -147 -390 -180 q -424 -113 -390 -113 q -458 -147 -458 -113 z "},"ฺ":{"ha":0,"x_min":-254,"x_max":-113,"o":"m -254 -150 q -234 -100 -254 -121 q -183 -79 -213 -79 q -133 -100 -154 -79 q -113 -150 -113 -121 q -134 -202 -113 -182 q -183 -222 -156 -222 q -233 -202 -211 -222 q -254 -150 -254 -182 z "},"฿":{"ha":777,"x_min":11,"x_max":729,"o":"m 688 743 q 646 609 688 664 q 515 525 605 555 l 515 519 q 673 436 618 502 q 729 268 729 370 q 649 79 729 145 q 416 1 568 12 l 416 -110 l 347 -110 l 347 0 l 11 0 l 11 58 l 18 58 q 97 81 77 58 q 118 158 118 104 l 118 839 q 108 894 118 873 q 79 924 98 915 q 18 933 60 933 l 11 933 l 11 991 l 347 991 l 347 1055 l 416 1055 l 416 989 q 617 913 546 977 q 688 743 688 850 m 581 272 q 416 479 581 453 l 416 72 q 541 134 502 85 q 581 272 581 183 m 258 69 l 347 69 l 347 485 l 258 485 l 258 69 m 539 743 q 507 857 539 813 q 416 916 474 901 l 416 566 q 510 624 481 581 q 539 743 539 667 m 258 554 l 347 554 l 347 922 l 258 922 l 258 554 z "},"เ":{"ha":427,"x_min":125,"x_max":401,"o":"m 332 117 q 313 168 332 149 q 262 186 295 186 q 211 168 230 186 q 192 117 192 149 q 211 65 192 84 q 262 46 230 46 q 313 65 295 46 q 332 117 332 84 m 125 684 l 193 764 l 239 764 l 239 243 q 272 245 245 245 q 367 213 332 245 q 401 117 401 180 q 365 22 401 56 q 262 -12 328 -12 q 160 22 195 -12 q 125 117 125 56 l 125 684 z "},"แ":{"ha":790,"x_min":125,"x_max":766,"o":"m 332 117 q 313 168 332 149 q 262 186 295 186 q 211 168 230 186 q 192 117 192 149 q 211 65 192 84 q 262 46 230 46 q 313 65 295 46 q 332 117 332 84 m 125 684 l 193 764 l 239 764 l 239 243 q 272 245 245 245 q 367 213 332 245 q 401 117 401 180 q 365 22 401 56 q 262 -12 328 -12 q 160 22 195 -12 q 125 117 125 56 l 125 684 m 697 117 q 679 168 697 149 q 628 186 661 186 q 576 168 595 186 q 557 117 557 149 q 576 65 557 84 q 628 46 595 46 q 679 65 661 46 q 697 117 697 84 m 490 684 l 558 764 l 604 764 l 604 243 q 637 245 611 245 q 732 213 697 245 q 766 117 766 180 q 730 22 766 56 q 628 -12 694 -12 q 526 22 561 -12 q 490 117 490 56 l 490 684 z "},"โ":{"ha":590,"x_min":0,"x_max":611,"o":"m 379 243 q 412 245 386 245 q 508 213 473 245 q 542 117 542 180 q 506 22 542 56 q 404 -12 470 -12 q 301 22 337 -12 q 265 117 265 56 l 265 890 q 228 1042 265 997 q 107 1088 191 1088 l 0 1088 l 0 1135 q 50 1307 0 1255 q 214 1358 99 1358 q 411 1342 272 1358 l 452 1339 q 500 1343 480 1339 q 535 1354 519 1347 q 583 1386 551 1362 l 611 1356 q 542 1287 567 1304 q 483 1260 516 1270 q 400 1250 449 1250 q 309 1258 374 1250 q 211 1265 243 1265 q 85 1239 119 1265 q 50 1147 50 1212 l 149 1147 q 325 1086 271 1147 q 379 903 379 1025 l 379 243 m 473 117 q 455 168 473 149 q 404 186 437 186 q 353 168 372 186 q 334 117 334 149 q 353 65 334 84 q 404 46 372 46 q 455 65 437 46 q 473 117 473 84 z "},"ใ":{"ha":587,"x_min":0,"x_max":562,"o":"m 400 243 q 433 245 407 245 q 528 213 493 245 q 562 117 562 180 q 527 22 562 56 q 425 -12 491 -12 q 322 22 358 -12 q 286 117 286 56 l 286 957 q 312 1097 286 1045 q 396 1186 338 1148 q 347 1298 391 1257 q 236 1339 304 1339 q 121 1308 161 1339 q 74 1223 81 1277 q 111 1249 85 1238 q 164 1260 137 1260 q 243 1229 214 1260 q 273 1145 273 1198 q 240 1060 273 1090 q 150 1029 206 1029 q 38 1072 76 1029 q 0 1190 0 1115 q 68 1343 0 1286 q 254 1400 136 1400 q 422 1342 357 1400 q 496 1185 488 1284 q 438 1126 458 1156 q 409 1063 418 1097 q 400 961 400 1029 l 400 243 m 493 117 q 475 168 493 149 q 424 186 456 186 q 372 168 391 186 q 353 117 353 149 q 372 65 353 84 q 424 46 391 46 q 475 65 456 46 q 493 117 493 84 m 210 1145 q 193 1187 210 1171 q 149 1203 176 1203 q 106 1187 123 1203 q 89 1145 89 1171 q 106 1101 89 1117 q 149 1084 123 1084 q 193 1101 176 1084 q 210 1145 210 1117 z "},"ไ":{"ha":676,"x_min":-20,"x_max":652,"o":"m 582 117 q 564 168 582 149 q 513 186 545 186 q 461 168 480 186 q 441 117 441 149 q 461 65 441 84 q 513 46 480 46 q 564 65 545 46 q 582 117 582 84 m -20 1341 l -20 1400 q 91 1385 56 1400 q 149 1330 125 1371 q 203 1175 172 1289 l 224 1221 q 308 1364 273 1328 q 392 1400 344 1400 q 464 1365 439 1400 q 489 1250 489 1331 l 489 243 q 522 245 496 245 q 617 213 583 245 q 652 117 652 180 q 616 22 652 56 q 514 -12 580 -12 q 411 22 447 -12 q 375 117 375 56 l 375 1250 q 350 1308 375 1308 q 318 1284 335 1308 q 282 1218 302 1261 l 176 1003 l 143 1003 l 103 1152 q 65 1268 82 1229 q 31 1324 49 1308 q -20 1341 13 1341 z "},"ๅ":{"ha":669,"x_min":-3,"x_max":558,"o":"m 558 -272 l 490 -353 l 444 -353 l 444 465 q 397 648 444 585 q 264 711 351 711 q 160 695 211 711 q 29 631 109 679 l -3 684 q 285 778 136 778 q 558 472 558 778 l 558 -272 z "},"ๆ":{"ha":688,"x_min":40,"x_max":576,"o":"m 294 616 l 196 704 q 114 574 128 673 q 153 600 127 589 q 204 610 179 610 q 284 579 254 610 q 314 494 314 549 q 281 411 314 442 q 191 379 248 379 q 78 421 117 379 q 40 539 40 464 q 84 687 40 623 q 203 774 129 752 l 294 690 l 386 774 q 576 542 576 749 l 576 -272 l 509 -353 l 463 -353 l 463 547 q 395 703 463 675 l 294 616 m 250 494 q 233 536 250 520 q 189 553 216 553 q 146 536 163 553 q 129 494 129 520 q 146 451 129 467 q 189 435 163 435 q 233 451 216 435 q 250 494 250 467 z "},"็":{"ha":0,"x_min":-583,"x_max":-64,"o":"m -161 909 q -206 930 -191 912 q -221 974 -221 948 q -205 1016 -221 998 q -157 1034 -189 1034 q -83 950 -83 1034 q -113 863 -83 897 q -192 828 -142 828 q -255 843 -222 828 q -330 889 -288 857 l -375 921 q -437 833 -397 877 q -542 893 -500 846 q -583 1003 -583 940 q -533 1113 -583 1072 q -400 1154 -484 1154 q -250 1140 -362 1154 l -211 1137 q -174 1141 -189 1137 q -145 1151 -159 1144 q -93 1186 -132 1157 l -64 1157 q -132 1086 -98 1112 q -208 1060 -166 1060 q -315 1070 -243 1060 q -415 1080 -387 1080 q -518 1003 -518 1080 q -508 963 -518 981 q -481 932 -498 945 q -452 917 -465 919 q -397 1006 -417 951 q -291 937 -379 997 q -196 889 -221 889 q -161 909 -173 889 m -179 972 q -153 947 -179 947 q -135 954 -142 947 q -127 972 -127 961 q -135 991 -127 984 q -153 999 -142 999 q -172 991 -165 999 q -179 972 -179 984 z "},"ํ":{"ha":0,"x_min":-313,"x_max":-62,"o":"m -313 951 q -281 1037 -313 1006 q -189 1068 -249 1068 q -95 1037 -128 1068 q -62 951 -62 1006 q -95 865 -62 896 q -189 835 -128 835 q -281 865 -249 835 q -313 951 -313 896 m -252 951 q -234 906 -252 923 q -187 889 -216 889 q -142 906 -160 889 q -123 951 -123 923 q -142 997 -123 980 q -187 1014 -160 1014 q -234 997 -216 1014 q -252 951 -252 980 z "},"๎":{"ha":0,"x_min":-336,"x_max":-58,"o":"m -132 971 q -216 958 -187 971 q -245 918 -245 944 q -230 891 -245 901 q -184 880 -215 880 q -93 895 -132 880 l -93 844 q -195 829 -134 829 q -299 853 -262 829 q -336 920 -336 878 q -305 975 -336 955 q -212 996 -273 996 q -266 1024 -245 1005 q -286 1069 -286 1042 q -252 1130 -286 1109 q -162 1152 -218 1152 q -58 1131 -95 1152 l -82 1088 q -154 1104 -111 1104 q -188 1093 -175 1104 q -201 1064 -201 1082 q -132 1013 -201 1019 l -132 971 z "},"๏":{"ha":895,"x_min":52,"x_max":843,"o":"m 52 382 q 105 580 52 488 q 250 726 158 673 q 447 779 341 779 q 645 726 553 779 q 790 579 737 672 q 843 382 843 487 q 790 185 843 277 q 645 40 737 94 q 447 -14 553 -14 q 250 39 342 -14 q 105 184 158 92 q 52 382 52 276 m 118 382 q 162 219 118 294 q 282 99 206 143 q 447 56 357 56 q 611 99 535 56 q 731 219 687 143 q 775 382 775 294 q 732 545 775 469 q 612 666 688 621 q 447 710 535 710 q 281 666 358 710 q 161 545 205 621 q 118 382 118 469 m 310 382 q 350 479 310 438 q 447 521 389 521 q 544 480 503 521 q 585 382 585 439 q 543 286 585 326 q 447 245 502 245 q 350 287 389 245 q 310 382 310 328 z "},"๐":{"ha":922,"x_min":89,"x_max":833,"o":"m 460 49 q 649 118 577 49 q 721 310 721 188 q 650 500 721 430 q 460 570 578 570 q 272 499 342 570 q 201 310 201 429 q 233 172 201 231 q 324 81 264 113 q 460 49 383 49 m 460 -14 q 188 74 288 -14 q 89 309 89 161 q 188 545 89 459 q 460 631 288 631 q 733 545 632 631 q 833 309 833 459 q 733 73 833 160 q 460 -14 633 -14 z "},"๑":{"ha":922,"x_min":89,"x_max":833,"o":"m 380 285 q 397 244 380 260 q 439 228 413 228 q 480 244 464 228 q 497 285 497 260 q 480 328 497 311 q 439 345 464 345 q 397 328 413 345 q 380 285 380 311 m 833 290 q 795 143 833 215 q 668 -8 757 71 l 632 28 q 704 153 682 91 q 725 292 725 216 q 691 438 725 375 q 597 536 658 502 q 461 571 536 571 q 326 537 386 571 q 232 440 266 503 q 199 294 199 377 q 245 116 199 183 q 367 49 292 49 q 466 91 427 49 q 511 205 505 134 q 474 180 498 190 q 424 171 449 171 q 344 201 374 171 q 314 285 314 231 q 348 369 314 337 q 437 401 381 401 q 557 350 513 401 q 602 215 602 299 q 538 51 602 114 q 367 -12 475 -12 q 164 70 239 -12 q 89 290 89 153 q 135 467 89 389 q 267 588 182 545 q 461 631 353 631 q 652 586 566 631 q 786 464 739 542 q 833 290 833 386 z "},"๒":{"ha":922,"x_min":61,"x_max":822,"o":"m 403 350 q 419 309 403 325 q 461 293 435 293 q 503 309 486 293 q 519 350 519 325 q 503 393 519 376 q 461 410 486 410 q 419 393 435 410 q 403 350 403 376 m 109 714 q 104 762 109 743 q 93 798 100 782 q 61 846 85 813 l 97 880 q 194 785 165 838 q 222 663 222 732 l 222 264 q 255 107 222 153 q 359 61 288 61 l 571 61 q 675 106 642 61 q 708 264 708 151 l 708 421 q 696 513 708 474 q 665 559 684 551 l 568 473 l 469 561 q 396 431 396 543 q 430 456 408 446 q 476 467 451 467 q 556 436 526 467 q 586 353 586 406 q 553 268 586 300 q 463 236 520 236 q 348 283 391 236 q 306 414 306 330 q 352 558 306 499 q 476 632 397 616 l 568 549 l 660 632 q 753 599 718 624 q 805 534 789 574 q 822 419 822 494 l 822 240 q 771 59 822 117 q 615 0 720 0 l 315 0 q 160 58 211 0 q 109 240 109 117 l 109 714 z "},"๓":{"ha":922,"x_min":86,"x_max":836,"o":"m 435 102 q 418 142 435 127 q 375 157 401 157 q 335 142 351 157 q 318 102 318 127 q 335 59 318 75 q 375 43 351 43 q 418 59 401 43 q 435 102 435 75 m 836 338 q 677 -8 836 133 l 642 28 q 726 317 726 135 q 699 505 726 441 q 624 570 671 570 q 509 342 534 570 l 505 317 l 419 317 l 416 342 q 298 570 391 570 q 224 505 252 570 q 196 317 196 441 q 256 102 196 158 q 290 183 256 153 q 376 214 325 214 q 467 184 432 214 q 501 102 501 155 q 361 -14 501 -14 q 216 25 278 -14 q 120 137 153 64 q 86 313 86 211 q 139 550 86 470 q 294 631 192 631 q 461 439 429 631 q 628 631 494 631 q 782 556 728 631 q 836 338 836 481 z "},"๔":{"ha":922,"x_min":86,"x_max":867,"o":"m 718 319 q 688 235 718 267 q 607 204 659 204 q 562 214 583 204 q 526 240 540 224 q 729 102 555 153 q 867 32 825 73 l 835 -16 q 756 13 801 2 q 664 24 711 24 q 545 9 638 24 q 376 -7 450 -7 q 162 64 239 -7 q 86 260 86 135 q 167 449 86 370 q 446 597 248 528 q 622 675 557 635 q 719 763 686 714 q 760 889 751 811 l 802 889 q 827 828 821 849 q 833 790 833 808 q 803 708 833 745 q 709 638 773 672 q 505 555 645 604 q 267 430 332 494 q 203 257 203 365 q 255 113 203 168 q 395 57 308 57 q 538 87 449 57 l 571 96 q 477 175 512 125 q 443 283 443 225 q 485 393 443 352 q 595 435 526 435 q 685 404 652 435 q 718 319 718 372 m 652 321 q 635 362 652 346 q 591 378 618 378 q 551 362 568 378 q 534 321 534 346 q 551 279 534 295 q 591 264 568 264 q 635 279 618 264 q 652 321 652 295 z "},"๕":{"ha":922,"x_min":86,"x_max":867,"o":"m 718 319 q 688 235 718 267 q 607 204 659 204 q 562 214 583 204 q 526 240 540 224 q 729 102 555 153 q 867 32 825 73 l 835 -16 q 756 13 801 2 q 664 24 711 24 q 545 9 638 24 q 376 -7 450 -7 q 162 64 239 -7 q 86 260 86 135 q 145 425 86 353 q 338 555 204 496 q 304 589 318 565 q 290 647 290 614 q 323 732 290 702 q 416 762 357 762 q 508 731 475 762 q 541 647 541 700 l 541 640 l 539 633 q 698 737 648 680 q 760 889 749 794 l 802 889 q 827 828 821 849 q 833 790 833 808 q 803 708 833 745 q 708 638 772 672 q 504 555 643 604 q 268 431 332 495 q 203 257 203 366 q 255 113 203 168 q 395 57 308 57 q 538 87 449 57 l 571 96 q 477 175 512 125 q 443 283 443 225 q 485 393 443 352 q 595 435 526 435 q 685 404 652 435 q 718 319 718 372 m 652 321 q 635 362 652 346 q 591 378 618 378 q 551 362 568 378 q 534 321 534 346 q 551 279 534 295 q 591 264 568 264 q 635 279 618 264 q 652 321 652 295 m 473 647 q 457 688 473 673 q 414 704 440 704 q 373 688 390 704 q 357 647 357 673 q 373 606 357 621 q 414 590 390 590 q 457 607 440 590 q 473 647 473 623 z "},"๖":{"ha":922,"x_min":68,"x_max":799,"o":"m 216 235 q 261 355 216 310 q 379 400 305 400 q 469 370 435 400 q 503 285 503 339 q 473 201 503 232 q 392 170 443 170 q 346 180 368 170 q 311 205 325 190 q 369 94 318 139 q 493 49 420 49 q 640 112 591 49 q 689 292 689 174 q 623 474 689 406 q 443 542 556 542 q 322 521 384 542 q 215 464 260 500 q 148 623 195 520 q 68 782 100 725 l 195 838 q 273 557 241 703 q 360 589 304 576 q 463 603 415 603 q 705 517 612 603 q 799 292 799 432 q 719 66 799 146 q 494 -14 640 -14 q 348 19 412 -14 q 250 108 284 51 q 216 235 216 165 m 436 286 q 419 327 436 311 q 376 343 402 343 q 336 327 353 343 q 319 286 319 311 q 336 245 319 260 q 376 229 353 229 q 419 245 402 229 q 436 286 436 260 z "},"๗":{"ha":922,"x_min":52,"x_max":905,"o":"m 745 663 q 772 785 745 733 q 869 880 800 838 l 905 846 l 888 821 q 859 714 859 781 l 859 240 q 809 59 859 117 q 656 0 760 0 l 543 0 l 543 334 q 528 517 543 465 q 476 570 513 570 q 435 554 451 570 q 410 507 419 538 q 392 395 400 475 l 389 367 l 313 367 q 294 504 302 471 q 272 554 286 538 q 237 570 259 570 q 177 519 194 570 q 160 328 160 469 q 165 218 160 267 q 179 155 170 170 q 289 216 209 216 q 379 185 344 216 q 414 102 414 153 q 380 17 414 47 q 281 -14 347 -14 q 52 313 52 -14 q 93 555 52 480 q 229 631 135 631 q 311 597 281 631 q 351 479 340 564 q 397 594 361 558 q 497 631 433 631 q 590 601 557 631 q 637 504 623 570 q 652 313 652 437 l 652 61 q 723 103 701 61 q 745 236 745 144 l 745 663 m 347 103 q 330 144 347 128 q 288 160 313 160 q 247 144 264 160 q 231 103 231 128 q 247 60 231 77 q 288 43 264 43 q 330 60 313 43 q 347 103 347 77 z "},"๘":{"ha":922,"x_min":86,"x_max":854,"o":"m 854 207 q 808 54 854 115 q 689 -7 761 -7 q 635 2 662 -7 q 583 26 609 12 q 504 81 557 41 q 436 122 454 117 q 367 -7 412 49 q 159 62 232 -7 q 86 260 86 132 q 167 449 86 370 q 446 597 248 528 q 622 675 557 635 q 719 763 686 714 q 760 889 751 811 l 802 889 q 827 828 821 849 q 833 790 833 808 q 803 708 833 745 q 708 637 773 671 q 507 555 643 603 q 268 430 334 495 q 203 257 203 364 q 240 131 203 182 q 339 64 278 79 q 382 150 363 98 q 404 237 401 201 q 557 154 471 222 q 685 90 637 90 q 740 117 718 90 q 770 192 763 143 q 735 166 756 176 q 690 155 714 155 q 609 187 639 155 q 579 271 579 218 q 612 354 579 323 q 703 386 645 386 q 816 339 777 386 q 854 207 854 292 m 646 272 q 663 231 646 246 q 705 215 680 215 q 746 231 729 215 q 762 272 762 246 q 746 313 762 298 q 705 329 729 329 q 663 313 680 329 q 646 272 646 298 z "},"๙":{"ha":922,"x_min":86,"x_max":873,"o":"m 435 102 q 418 142 435 127 q 375 157 401 157 q 335 142 351 157 q 318 102 318 127 q 335 59 318 75 q 375 43 351 43 q 418 59 401 43 q 435 102 435 75 m 298 570 q 223 505 251 570 q 196 328 196 441 q 256 102 196 159 q 290 183 256 153 q 376 214 325 214 q 467 184 432 214 q 501 102 501 155 q 361 -14 501 -14 q 219 28 281 -14 q 121 146 156 69 q 86 328 86 224 q 137 555 86 479 q 294 631 187 631 q 388 612 346 631 q 460 564 431 594 q 539 656 520 609 q 620 603 577 640 q 690 528 662 566 q 740 638 722 561 q 757 818 757 715 l 873 791 q 824 581 873 675 q 671 424 774 488 q 610 502 651 456 q 546 562 568 548 q 501 511 529 536 q 559 403 530 465 l 750 0 l 623 0 l 492 294 q 404 481 431 433 q 353 549 376 529 q 298 570 329 570 z "},"๚":{"ha":996,"x_min":31,"x_max":871,"o":"m 757 0 l 757 764 l 871 764 l 871 81 l 803 0 l 757 0 m 97 610 q 113 568 97 584 q 158 551 130 551 q 201 568 184 551 q 218 610 218 584 q 201 654 218 638 q 158 669 184 669 q 113 654 130 669 q 97 610 97 638 m 632 764 l 632 81 l 564 0 l 518 0 l 518 618 q 357 504 436 539 q 199 468 279 468 q 75 506 119 468 q 31 611 31 544 q 65 697 31 666 q 158 728 100 728 q 251 697 218 728 q 283 611 283 666 q 272 559 283 583 q 245 525 260 536 q 411 609 340 547 q 524 764 481 671 l 632 764 z "},"๛":{"ha":1272,"x_min":60,"x_max":1227,"o":"m 1227 349 l 1227 311 l 1067 279 l 990 129 l 979 129 l 896 311 l 794 75 l 783 75 l 682 325 q 615 163 648 222 q 542 67 582 104 q 453 10 502 30 q 345 -9 404 -9 q 136 74 213 -9 q 60 298 60 158 q 129 525 60 441 q 314 610 199 610 q 462 551 406 610 q 518 393 518 492 q 478 252 518 303 q 367 201 439 201 q 277 232 312 201 q 243 317 243 263 q 273 401 243 370 q 354 432 302 432 q 399 422 378 432 q 435 396 421 412 q 420 471 435 435 q 378 527 405 507 q 315 547 351 547 q 196 482 239 547 q 154 297 154 416 q 208 119 154 183 q 357 54 262 54 q 540 153 467 54 q 672 486 614 252 l 688 486 l 796 212 l 893 433 l 907 433 l 994 244 l 1064 379 l 1227 349 m 309 315 q 325 273 309 290 q 370 257 341 257 q 412 273 395 257 q 429 315 429 290 q 412 359 429 344 q 370 375 395 375 q 325 359 341 375 q 309 315 309 344 z "},"่":{"ha":0,"x_min":-240,"x_max":-109,"o":"m -240 1450 l -109 1450 l -136 1204 l -212 1204 l -240 1450 z "},"้":{"ha":0,"x_min":-476,"x_max":-22,"o":"m -278 1396 q -302 1320 -278 1359 q -364 1258 -326 1282 q -251 1280 -296 1258 q -179 1347 -207 1302 q -125 1503 -151 1391 l -22 1468 q -347 1204 -75 1204 l -428 1204 l -447 1253 q -376 1304 -405 1276 q -339 1361 -347 1333 q -397 1335 -361 1335 q -455 1357 -435 1335 q -476 1418 -476 1379 q -451 1481 -476 1460 q -387 1503 -426 1503 q -307 1474 -335 1503 q -278 1396 -278 1444 m -425 1419 q -414 1392 -425 1402 q -386 1382 -403 1382 q -360 1392 -370 1382 q -350 1419 -350 1402 q -360 1447 -350 1436 q -386 1457 -370 1457 q -414 1447 -403 1457 q -425 1419 -425 1436 z "},"๊":{"ha":0,"x_min":-600,"x_max":-28,"o":"m -229 1357 q -248 1270 -229 1309 q -177 1344 -205 1288 q -131 1503 -149 1401 l -28 1468 q -132 1268 -60 1331 q -332 1204 -205 1204 q -307 1271 -317 1232 q -297 1341 -297 1310 q -306 1396 -297 1372 q -342 1438 -314 1420 l -412 1375 l -486 1439 q -539 1346 -539 1408 q -481 1372 -518 1372 q -425 1352 -448 1372 q -401 1289 -401 1332 q -427 1226 -401 1249 q -490 1204 -452 1204 q -571 1241 -542 1204 q -600 1340 -600 1278 q -481 1503 -600 1459 l -412 1442 l -346 1503 q -229 1357 -229 1459 m -453 1289 q -463 1315 -453 1305 q -490 1325 -473 1325 q -517 1315 -507 1325 q -528 1289 -528 1305 q -517 1261 -528 1272 q -490 1251 -507 1251 q -463 1261 -473 1251 q -453 1289 -453 1272 z "},"๋":{"ha":0,"x_min":-310,"x_max":-64,"o":"m -310 1293 l -310 1360 l -221 1360 l -221 1449 l -153 1449 l -153 1360 l -64 1360 l -64 1293 l -153 1293 l -153 1204 l -221 1204 l -221 1293 l -310 1293 z "},"์":{"ha":0,"x_min":-550,"x_max":3,"o":"m -297 1305 q -330 1226 -297 1257 q -422 1196 -363 1196 q -515 1227 -481 1196 q -550 1312 -550 1258 q -504 1404 -550 1373 q -346 1444 -457 1435 q -208 1464 -256 1453 q -139 1494 -161 1476 q -111 1550 -117 1513 l 3 1550 q -47 1434 -11 1468 q -164 1393 -84 1401 q -316 1384 -244 1385 l -332 1383 q -297 1305 -297 1351 m -486 1314 q -469 1268 -486 1284 q -422 1251 -452 1251 q -378 1268 -396 1251 q -359 1314 -359 1284 q -378 1358 -359 1341 q -422 1375 -396 1375 q -469 1358 -452 1375 q -486 1314 -486 1341 z "},"​":{"ha":0,"x_min":0,"x_max":0,"o":""},"◌":{"ha":825,"x_min":69,"x_max":756,"o":"m 665 623 q 632 589 665 589 q 597 623 597 589 q 632 656 597 656 q 665 623 665 656 m 564 689 q 532 656 564 656 q 496 689 496 656 q 532 724 496 724 q 564 689 564 724 m 732 522 q 697 488 732 488 q 664 522 664 488 q 699 555 664 555 q 732 522 732 555 m 756 404 q 724 370 756 370 q 688 404 688 370 q 724 438 688 438 q 756 404 756 438 m 446 714 q 412 680 446 680 q 378 714 378 680 q 412 747 378 747 q 446 714 446 747 m 329 689 q 294 656 329 656 q 261 689 261 656 q 294 724 261 724 q 329 689 329 724 m 732 286 q 697 253 732 253 q 664 286 664 253 q 697 321 664 321 q 732 286 732 321 m 229 623 q 195 589 229 589 q 161 621 161 589 q 195 656 161 656 q 229 623 229 656 m 665 184 q 632 151 665 151 q 597 184 597 151 q 632 219 597 219 q 665 184 665 219 m 564 118 q 532 85 564 85 q 496 118 496 85 q 532 153 496 153 q 564 118 564 153 m 161 522 q 129 488 161 488 q 94 522 94 488 q 127 555 94 555 q 161 522 161 555 m 137 404 q 104 370 138 370 q 69 404 69 370 q 104 438 69 438 q 137 404 138 438 m 446 96 q 412 61 446 61 q 378 96 378 61 q 412 129 378 129 q 446 96 446 129 m 161 286 q 127 253 161 253 q 94 286 94 253 q 127 321 94 321 q 161 286 161 321 m 329 121 q 294 85 329 85 q 261 118 261 85 q 294 153 261 153 q 329 121 329 153 m 229 184 q 195 151 229 151 q 161 184 161 151 q 195 219 161 219 q 229 184 229 219 z "}}}
